<svg width="32" height="32" viewBox="0 0 32 32" fill="none" xmlns="http://www.w3.org/2000/svg">
<path d="M3.9045 1.6H12.9605C14.1978 1.6 15.1472 1.94133 15.8085 2.624C16.4698 3.28533 16.8005 4.224 16.8005 5.44V10.72C16.8005 11.936 16.4698 12.8853 15.8085 13.568C15.1472 14.2293 14.1978 14.56 12.9605 14.56H11.2645L17.8245 24H15.1365L8.7365 14.56H6.1445V24H3.9045V1.6ZM6.1445 3.68V12.512H12.8965C14.0058 12.512 14.5605 11.936 14.5605 10.784V5.408C14.5605 4.256 14.0058 3.68 12.8965 3.68H6.1445Z" fill="#8B2252"/>
<path d="M25.0083 22.072L22.0323 10.68H21.0083L18.0003 22.072H25.0083ZM17.4883 24.12L15.6963 31H13.4883L19.3443 8.6H23.6643L29.5203 31H27.3123L25.4883 24.12H17.4883ZM25.5523 3C26.1069 3.448 26.3843 3.98133 26.3843 4.6C26.3843 4.792 26.3523 4.99467 26.2883 5.208L20.5603 6.648L20.0483 5.432L25.5523 3Z" fill="#8B2252"/>
</svg>
